<svg width="400" height="400" viewBox="0 0 400 400" xmlns="http://www.w3.org/2000/svg">
  <defs>
    <linearGradient id="bg4" x1="0%" y1="0%" x2="100%" y2="100%">
      <stop offset="0%" style="stop-color:#334155;stop-opacity:1" />
      <stop offset="100%" style="stop-color:#1e293b;stop-opacity:1" />
    </linearGradient>
    <linearGradient id="body4" x1="0%" y1="0%" x2="100%" y2="100%">
      <stop offset="0%" style="stop-color:#ec4899;stop-opacity:1" />
      <stop offset="100%" style="stop-color:#8b5cf6;stop-opacity:1" />
    </linearGradient>
  </defs>

  <rect width="400" height="400" fill="url(#bg4)"/>

  <!-- Title -->
  <text x="200" y="40" font-family="system-ui" font-size="24" font-weight="bold" fill="#ffffff" text-anchor="middle">Brustpresse</text>

  <!-- Head -->
  <circle cx="200" cy="100" r="25" fill="url(#body4)"/>

  <!-- Body/Chest -->
  <ellipse cx="200" cy="180" rx="50" ry="60" fill="url(#body4)"/>

  <!-- Left arm -->
  <rect x="120" y="140" width="20" height="80" rx="10" fill="url(#body4)">
    <animate attributeName="width" values="20;80;20" dur="2s" repeatCount="indefinite"/>
  </rect>

  <!-- Right arm -->
  <rect x="260" y="140" width="20" height="80" rx="10" fill="url(#body4)">
    <animate attributeName="x" values="260;200;260" dur="2s" repeatCount="indefinite"/>
    <animate attributeName="width" values="20;80;20" dur="2s" repeatCount="indefinite"/>
  </rect>

  <!-- Weights -->
  <rect x="90" y="160" width="25" height="40" rx="5" fill="#64748b">
    <animate attributeName="x" values="90;130;90" dur="2s" repeatCount="indefinite"/>
  </rect>
  <rect x="285" y="160" width="25" height="40" rx="5" fill="#64748b">
    <animate attributeName="x" values="285;245;285" dur="2s" repeatCount="indefinite"/>
  </rect>

  <!-- Arrows showing both arms pushing inward -->
  <!-- Left arrow (pushing right) -->
  <path d="M 150 280 L 195 280 L 185 270 M 195 280 L 185 290" stroke="#fbbf24" stroke-width="3" fill="none">
    <animate attributeName="opacity" values="1;0.3;1" dur="2s" repeatCount="indefinite"/>
  </path>
  <!-- Right arrow (pushing left) -->
  <path d="M 250 280 L 205 280 L 215 270 M 205 280 L 215 290" stroke="#fbbf24" stroke-width="3" fill="none">
    <animate attributeName="opacity" values="1;0.3;1" dur="2s" repeatCount="indefinite"/>
  </path>
</svg>