<svg width="400" height="400" viewBox="0 0 400 400" xmlns="http://www.w3.org/2000/svg">
  <defs>
    <linearGradient id="bg7" x1="0%" y1="0%" x2="100%" y2="100%">
      <stop offset="0%" style="stop-color:#334155;stop-opacity:1" />
      <stop offset="100%" style="stop-color:#1e293b;stop-opacity:1" />
    </linearGradient>
    <linearGradient id="body7" x1="0%" y1="0%" x2="100%" y2="100%">
      <stop offset="0%" style="stop-color:#a855f7;stop-opacity:1" />
      <stop offset="100%" style="stop-color:#ec4899;stop-opacity:1" />
    </linearGradient>
  </defs>

  <rect width="400" height="400" fill="url(#bg7)"/>

  <!-- Title -->
  <text x="200" y="40" font-family="system-ui" font-size="24" font-weight="bold" fill="#ffffff" text-anchor="middle">Butterfly</text>

  <!-- Machine frame base -->
  <rect x="160" y="240" width="80" height="120" rx="5" fill="#475569" opacity="0.6"/>

  <!-- Seat back support -->
  <rect x="185" y="140" width="30" height="130" rx="10" fill="#475569"/>

  <!-- Head -->
  <circle cx="200" cy="110" r="24" fill="url(#body7)" stroke="#86198f" stroke-width="2"/>

  <!-- Body/Torso -->
  <ellipse cx="200" cy="190" rx="40" ry="55" fill="url(#body7)" stroke="#86198f" stroke-width="2"/>

  <!-- Left upper arm (horizontal) -->
  <rect x="130" y="165" width="55" height="18" rx="9" fill="url(#body7)" stroke="#86198f" stroke-width="2"/>

  <!-- Left forearm (vertical) -->
  <rect x="115" y="100" width="16" height="70" rx="8" fill="url(#body7)" stroke="#86198f" stroke-width="2"/>

  <!-- Left pad (moving) -->
  <rect x="100" y="95" width="25" height="80" rx="8" fill="#64748b" stroke="#334155" stroke-width="2">
    <animate attributeName="x" values="100;150;100" dur="2.5s" repeatCount="indefinite"/>
  </rect>

  <!-- Right upper arm (horizontal) -->
  <rect x="215" y="165" width="55" height="18" rx="9" fill="url(#body7)" stroke="#86198f" stroke-width="2"/>

  <!-- Right forearm (vertical) -->
  <rect x="269" y="100" width="16" height="70" rx="8" fill="url(#body7)" stroke="#86198f" stroke-width="2"/>

  <!-- Right pad (moving) -->
  <rect x="275" y="95" width="25" height="80" rx="8" fill="#64748b" stroke="#334155" stroke-width="2">
    <animate attributeName="x" values="275;225;275" dur="2.5s" repeatCount="indefinite"/>
  </rect>

  <!-- Legs -->
  <rect x="175" y="240" width="18" height="70" rx="9" fill="url(#body7)" stroke="#86198f" stroke-width="2"/>
  <rect x="207" y="240" width="18" height="70" rx="9" fill="url(#body7)" stroke="#86198f" stroke-width="2"/>

  <!-- Feet -->
  <ellipse cx="184" cy="315" rx="14" ry="10" fill="#db2777" stroke="#9f1239" stroke-width="2"/>
  <ellipse cx="216" cy="315" rx="14" ry="10" fill="#db2777" stroke="#9f1239" stroke-width="2"/>

  <!-- Machine arms/levers (left) -->
  <rect x="95" y="170" width="60" height="8" rx="4" fill="#374151" opacity="0.7">
    <animate attributeName="width" values="60;40;60" dur="2.5s" repeatCount="indefinite"/>
  </rect>

  <!-- Machine arms/levers (right) -->
  <rect x="245" y="170" width="60" height="8" rx="4" fill="#374151" opacity="0.7">
    <animate attributeName="x" values="245;265;245" dur="2.5s" repeatCount="indefinite"/>
  </rect>

  <!-- Arrows showing inward/outward movement -->
  <path d="M 80 320 L 130 320 L 120 310 M 130 320 L 120 330" stroke="#fbbf24" stroke-width="3" fill="none">
    <animate attributeName="opacity" values="1;0.3;1" dur="2.5s" repeatCount="indefinite"/>
  </path>
  <path d="M 320 320 L 270 320 L 280 310 M 270 320 L 280 330" stroke="#fbbf24" stroke-width="3" fill="none">
    <animate attributeName="opacity" values="1;0.3;1" dur="2.5s" repeatCount="indefinite"/>
  </path>
</svg>