<svg width="400" height="400" viewBox="0 0 400 400" xmlns="http://www.w3.org/2000/svg">
  <defs>
    <linearGradient id="bg8" x1="0%" y1="0%" x2="100%" y2="100%">
      <stop offset="0%" style="stop-color:#334155;stop-opacity:1" />
      <stop offset="100%" style="stop-color:#1e293b;stop-opacity:1" />
    </linearGradient>
    <linearGradient id="body8" x1="0%" y1="0%" x2="100%" y2="100%">
      <stop offset="0%" style="stop-color:#f59e0b;stop-opacity:1" />
      <stop offset="100%" style="stop-color:#d97706;stop-opacity:1" />
    </linearGradient>
  </defs>

  <rect width="400" height="400" fill="url(#bg8)"/>

  <!-- Title -->
  <text x="200" y="40" font-family="system-ui" font-size="24" font-weight="bold" fill="#ffffff" text-anchor="middle">Crunch</text>

  <!-- Mat -->
  <rect x="80" y="240" width="240" height="15" rx="7" fill="#475569"/>

  <!-- Feet flat on ground (left) -->
  <ellipse cx="140" cy="246" rx="20" ry="12" fill="#c2410c"/>

  <!-- Feet flat on ground (right) -->
  <ellipse cx="260" cy="246" rx="20" ry="12" fill="#c2410c"/>

  <!-- Lower leg (left calf) -->
  <rect x="132" y="200" width="16" height="50" rx="8" fill="url(#body8)"/>

  <!-- Lower leg (right calf) -->
  <rect x="252" y="200" width="16" height="50" rx="8" fill="url(#body8)"/>

  <!-- Upper leg (left thigh) - angled -->
  <rect x="150" y="170" width="50" height="18" rx="9" fill="url(#body8)" transform="rotate(-30 175 179)"/>

  <!-- Upper leg (right thigh) - angled -->
  <rect x="200" y="170" width="50" height="18" rx="9" fill="url(#body8)" transform="rotate(30 225 179)"/>

  <!-- Lower back/hips on ground -->
  <ellipse cx="200" cy="180" rx="45" ry="25" fill="url(#body8)"/>

  <!-- Upper body (crunching up) -->
  <g>
    <ellipse cx="200" cy="150" rx="45" ry="35" fill="url(#body8)">
      <animate attributeName="cy" values="150;130;150" dur="2s" repeatCount="indefinite"/>
      <animate attributeName="ry" values="35;30;35" dur="2s" repeatCount="indefinite"/>
    </ellipse>

    <!-- Head -->
    <circle cx="200" cy="110" r="24" fill="url(#body8)">
      <animate attributeName="cy" values="110;90;110" dur="2s" repeatCount="indefinite"/>
    </circle>

    <!-- Arms behind head (left) -->
    <path d="M 165 110 Q 155 90 180 100" stroke="url(#body8)" stroke-width="15" fill="none" stroke-linecap="round">
      <animate attributeName="d" values="M 165 110 Q 155 90 180 100; M 165 90 Q 155 70 180 80; M 165 110 Q 155 90 180 100" dur="2s" repeatCount="indefinite"/>
    </path>

    <!-- Arms behind head (right) -->
    <path d="M 235 110 Q 245 90 220 100" stroke="url(#body8)" stroke-width="15" fill="none" stroke-linecap="round">
      <animate attributeName="d" values="M 235 110 Q 245 90 220 100; M 235 90 Q 245 70 220 80; M 235 110 Q 245 90 220 100" dur="2s" repeatCount="indefinite"/>
    </path>
  </g>

  <!-- Arrow showing upward movement -->
  <path d="M 320 150 L 320 110 L 310 120 M 320 110 L 330 120" stroke="#22d3ee" stroke-width="3" fill="none">
    <animate attributeName="opacity" values="1;0.3;1" dur="2s" repeatCount="indefinite"/>
  </path>
</svg>