<svg width="400" height="400" viewBox="0 0 400 400" xmlns="http://www.w3.org/2000/svg">
  <defs>
    <linearGradient id="bg9" x1="0%" y1="0%" x2="100%" y2="100%">
      <stop offset="0%" style="stop-color:#334155;stop-opacity:1" />
      <stop offset="100%" style="stop-color:#1e293b;stop-opacity:1" />
    </linearGradient>
    <linearGradient id="body9" x1="0%" y1="0%" x2="100%" y2="100%">
      <stop offset="0%" style="stop-color:#06b6d4;stop-opacity:1" />
      <stop offset="100%" style="stop-color:#0891b2;stop-opacity:1" />
    </linearGradient>
  </defs>

  <rect width="400" height="400" fill="url(#bg9)"/>

  <!-- Title -->
  <text x="200" y="40" font-family="system-ui" font-size="22" font-weight="bold" fill="#ffffff" text-anchor="middle">Heel Touches</text>

  <!-- Mat -->
  <rect x="60" y="240" width="280" height="15" rx="7" fill="#475569"/>

  <!-- Legs -->
  <rect x="140" y="190" width="25" height="50" rx="12" fill="url(#body9)"/>
  <rect x="235" y="190" width="25" height="50" rx="12" fill="url(#body9)"/>

  <!-- Feet -->
  <ellipse cx="152" cy="245" rx="18" ry="10" fill="url(#body9)"/>
  <ellipse cx="248" cy="245" rx="18" ry="10" fill="url(#body9)"/>

  <!-- Lower body -->
  <rect x="130" y="160" width="140" height="35" rx="17" fill="url(#body9)"/>

  <!-- Upper body (slightly raised) -->
  <ellipse cx="200" cy="120" rx="55" ry="45" fill="url(#body9)"/>

  <!-- Head (raised) -->
  <circle cx="200" cy="75" r="22" fill="url(#body9)"/>

  <!-- Left arm (reaching to heel) -->
  <rect x="130" y="130" width="60" height="15" rx="7" fill="url(#body9)">
    <animate attributeName="x" values="130;145;130" dur="2s" repeatCount="indefinite"/>
    <animate attributeName="width" values="60;45;60" dur="2s" repeatCount="indefinite"/>
  </rect>

  <!-- Right arm (reaching to heel) -->
  <rect x="210" y="130" width="60" height="15" rx="7" fill="url(#body9)">
    <animate attributeName="x" values="210;195;210" dur="2s" repeatCount="indefinite"/>
    <animate attributeName="width" values="60;45;60" dur="2s" repeatCount="indefinite"/>
  </rect>

  <!-- Arrows showing side-to-side movement -->
  <g>
    <path d="M 100 180 L 130 180 L 120 170 M 130 180 L 120 190" stroke="#fbbf24" stroke-width="3" fill="none">
      <animate attributeName="opacity" values="0.3;1;0.3" dur="2s" repeatCount="indefinite"/>
    </path>
    <path d="M 300 180 L 270 180 L 280 170 M 270 180 L 280 190" stroke="#fbbf24" stroke-width="3" fill="none">
      <animate attributeName="opacity" values="1;0.3;1" dur="2s" repeatCount="indefinite"/>
    </path>
  </g>
</svg>