<svg width="400" height="400" viewBox="0 0 400 400" xmlns="http://www.w3.org/2000/svg">
  <defs>
    <linearGradient id="bg9" x1="0%" y1="0%" x2="100%" y2="100%">
      <stop offset="0%" style="stop-color:#334155;stop-opacity:1" />
      <stop offset="100%" style="stop-color:#1e293b;stop-opacity:1" />
    </linearGradient>
    <linearGradient id="body9" x1="0%" y1="0%" x2="100%" y2="100%">
      <stop offset="0%" style="stop-color:#06b6d4;stop-opacity:1" />
      <stop offset="100%" style="stop-color:#0891b2;stop-opacity:1" />
    </linearGradient>
  </defs>

  <rect width="400" height="400" fill="url(#bg9)"/>

  <!-- Title -->
  <text x="200" y="40" font-family="system-ui" font-size="22" font-weight="bold" fill="#ffffff" text-anchor="middle">Heel Touches</text>

  <!-- Mat -->
  <ellipse cx="200" cy="290" rx="160" ry="18" fill="#475569" opacity="0.8"/>

  <!-- Left leg (bent, stationary) -->
  <g>
    <!-- Thigh -->
    <ellipse cx="140" cy="240" rx="20" ry="50" fill="url(#body9)"/>
    <!-- Lower leg -->
    <rect x="125" y="200" width="18" height="45" rx="9" fill="url(#body9)" transform="rotate(-35 134 200)"/>
    <!-- Foot -->
    <ellipse cx="110" cy="275" rx="22" ry="12" fill="url(#body9)"/>
  </g>

  <!-- Right leg (bent, stationary) -->
  <g>
    <!-- Thigh -->
    <ellipse cx="260" cy="240" rx="20" ry="50" fill="url(#body9)"/>
    <!-- Lower leg -->
    <rect x="257" y="200" width="18" height="45" rx="9" fill="url(#body9)" transform="rotate(35 266 200)"/>
    <!-- Foot -->
    <ellipse cx="290" cy="275" rx="22" ry="12" fill="url(#body9)"/>
  </g>

  <!-- Lower body (stays on ground) -->
  <ellipse cx="200" cy="260" rx="60" ry="30" fill="url(#body9)"/>

  <!-- Upper body (slightly raised, moving side to side) -->
  <g>
    <!-- Torso -->
    <ellipse cx="200" cy="190" rx="50" ry="55" fill="url(#body9)">
      <animate attributeName="cx" values="200;195;205;200" dur="3s" repeatCount="indefinite"/>
    </ellipse>

    <!-- Head (slightly raised) -->
    <circle cx="200" cy="125" r="26" fill="url(#body9)">
      <animate attributeName="cx" values="200;195;205;200" dur="3s" repeatCount="indefinite"/>
    </circle>

    <!-- Left arm (reaching to left heel) -->
    <ellipse cx="160" cy="200" rx="14" ry="50" fill="url(#body9)" transform="rotate(20 160 200)">
      <animate attributeName="cx" values="160;140;160" dur="3s" repeatCount="indefinite"/>
      <animate attributeName="cy" values="200;220;200" dur="3s" repeatCount="indefinite"/>
      <animateTransform attributeName="transform" type="rotate" values="20 160 200; 35 140 220; 20 160 200" dur="3s" repeatCount="indefinite"/>
    </ellipse>

    <!-- Right arm (reaching to right heel) -->
    <ellipse cx="240" cy="200" rx="14" ry="50" fill="url(#body9)" transform="rotate(-20 240 200)">
      <animate attributeName="cx" values="240;260;240" dur="3s" repeatCount="indefinite"/>
      <animate attributeName="cy" values="200;220;200" dur="3s" repeatCount="indefinite"/>
      <animateTransform attributeName="transform" type="rotate" values="-20 240 200; -35 260 220; -20 240 200" dur="3s" repeatCount="indefinite"/>
    </ellipse>
  </g>

  <!-- Movement indicators -->
  <g opacity="0.8">
    <!-- Left arrow -->
    <path d="M 70 170 L 90 170 L 82 162 M 90 170 L 82 178" stroke="#fbbf24" stroke-width="3" fill="none" stroke-linecap="round">
      <animate attributeName="opacity" values="0.3;1;0.3;0.3" dur="3s" repeatCount="indefinite"/>
    </path>

    <!-- Right arrow -->
    <path d="M 330 170 L 310 170 L 318 162 M 310 170 L 318 178" stroke="#fbbf24" stroke-width="3" fill="none" stroke-linecap="round">
      <animate attributeName="opacity" values="0.3;0.3;1;0.3" dur="3s" repeatCount="indefinite"/>
    </path>
  </g>
</svg>