<svg width="400" height="400" viewBox="0 0 400 400" xmlns="http://www.w3.org/2000/svg">
  <defs>
    <linearGradient id="bg9" x1="0%" y1="0%" x2="100%" y2="100%">
      <stop offset="0%" style="stop-color:#334155;stop-opacity:1" />
      <stop offset="100%" style="stop-color:#1e293b;stop-opacity:1" />
    </linearGradient>
    <linearGradient id="body9" x1="0%" y1="0%" x2="100%" y2="100%">
      <stop offset="0%" style="stop-color:#06b6d4;stop-opacity:1" />
      <stop offset="100%" style="stop-color:#0891b2;stop-opacity:1" />
    </linearGradient>
  </defs>

  <rect width="400" height="400" fill="url(#bg9)"/>

  <!-- Title -->
  <text x="200" y="40" font-family="system-ui" font-size="22" font-weight="bold" fill="#ffffff" text-anchor="middle">Heel Touches</text>

  <!-- Mat -->
  <rect x="60" y="240" width="280" height="15" rx="7" fill="#475569"/>

  <!-- Lower back on ground -->
  <ellipse cx="200" cy="225" rx="50" ry="25" fill="url(#body9)"/>

  <!-- Upper legs (in air, slightly bent) -->
  <rect x="140" y="160" width="22" height="70" rx="11" fill="url(#body9)" transform="rotate(-15 151 195)"/>
  <rect x="238" y="160" width="22" height="70" rx="11" fill="url(#body9)" transform="rotate(15 249 195)"/>

  <!-- Lower legs (in air) -->
  <rect x="128" y="100" width="18" height="65" rx="9" fill="url(#body9)" transform="rotate(-25 137 132)"/>
  <rect x="254" y="100" width="18" height="65" rx="9" fill="url(#body9)" transform="rotate(25 263 132)"/>

  <!-- Feet in air -->
  <ellipse cx="115" cy="100" rx="16" ry="10" fill="#0e7490" transform="rotate(-25 115 100)"/>
  <ellipse cx="285" cy="100" rx="16" ry="10" fill="#0e7490" transform="rotate(25 285 100)"/>

  <!-- Upper body (slightly raised, shoulder blades off ground) -->
  <ellipse cx="200" cy="180" rx="50" ry="40" fill="url(#body9)"/>

  <!-- Head (raised, looking forward) -->
  <circle cx="200" cy="140" r="22" fill="url(#body9)"/>

  <!-- Left arm (reaching to heel) -->
  <rect x="145" y="175" width="55" height="14" rx="7" fill="url(#body9)">
    <animate attributeName="x" values="145;130;145" dur="2s" repeatCount="indefinite"/>
    <animate attributeName="width" values="55;40;55" dur="2s" repeatCount="indefinite"/>
  </rect>

  <!-- Right arm (reaching to heel) -->
  <rect x="200" y="175" width="55" height="14" rx="7" fill="url(#body9)">
    <animate attributeName="x" values="200;215;200" dur="2s" repeatCount="indefinite"/>
    <animate attributeName="width" values="55;40;55" dur="2s" repeatCount="indefinite"/>
  </rect>

  <!-- Arrows showing side-to-side movement -->
  <g>
    <path d="M 70 270 L 110 270 L 100 260 M 110 270 L 100 280" stroke="#fbbf24" stroke-width="3" fill="none">
      <animate attributeName="opacity" values="0.3;1;0.3" dur="2s" repeatCount="indefinite"/>
    </path>
    <path d="M 330 270 L 290 270 L 300 260 M 290 270 L 300 280" stroke="#fbbf24" stroke-width="3" fill="none">
      <animate attributeName="opacity" values="1;0.3;1" dur="2s" repeatCount="indefinite"/>
    </path>
  </g>
</svg>