<svg width="400" height="400" viewBox="0 0 400 400" xmlns="http://www.w3.org/2000/svg">
  <defs>
    <linearGradient id="bg10" x1="0%" y1="0%" x2="100%" y2="100%">
      <stop offset="0%" style="stop-color:#334155;stop-opacity:1" />
      <stop offset="100%" style="stop-color:#1e293b;stop-opacity:1" />
    </linearGradient>
    <linearGradient id="body10" x1="0%" y1="0%" x2="100%" y2="100%">
      <stop offset="0%" style="stop-color:#ef4444;stop-opacity:1" />
      <stop offset="100%" style="stop-color:#dc2626;stop-opacity:1" />
    </linearGradient>
    <radialGradient id="glow">
      <stop offset="0%" style="stop-color:#fbbf24;stop-opacity:0.6" />
      <stop offset="100%" style="stop-color:#f59e0b;stop-opacity:0" />
    </radialGradient>
  </defs>

  <rect width="400" height="400" fill="url(#bg10)"/>

  <!-- Title -->
  <text x="200" y="40" font-family="system-ui" font-size="24" font-weight="bold" fill="#ffffff" text-anchor="middle">Hollow Hold</text>

  <!-- Mat -->
  <rect x="40" y="240" width="320" height="15" rx="7" fill="#475569"/>

  <!-- Core engagement glow -->
  <ellipse cx="200" cy="190" rx="80" ry="40" fill="url(#glow)">
    <animate attributeName="opacity" values="0.6;1;0.6" dur="1.5s" repeatCount="indefinite"/>
  </ellipse>

  <!-- Legs (raised and straight) -->
  <g>
    <rect x="140" y="180" width="20" height="80" rx="10" fill="url(#body10)" transform="rotate(-35 150 180)"/>
    <rect x="240" y="180" width="20" height="80" rx="10" fill="url(#body10)" transform="rotate(35 250 180)"/>
    <!-- Feet -->
    <ellipse cx="110" cy="230" rx="15" ry="8" fill="url(#body10)" transform="rotate(-35 110 230)"/>
    <ellipse cx="290" cy="230" rx="15" ry="8" fill="url(#body10)" transform="rotate(35 290 230)"/>
  </g>

  <!-- Lower body -->
  <rect x="150" y="170" width="100" height="30" rx="15" fill="url(#body10)"/>

  <!-- Upper body (raised) -->
  <ellipse cx="200" cy="140" rx="50" ry="35" fill="url(#body10)"/>

  <!-- Head (raised, looking at feet) -->
  <circle cx="200" cy="105" r="20" fill="url(#body10)"/>

  <!-- Arms (extended behind head or at sides) -->
  <g>
    <rect x="80" y="125" width="70" height="12" rx="6" fill="url(#body10)" transform="rotate(-20 115 131)"/>
    <rect x="250" y="125" width="70" height="12" rx="6" fill="url(#body10)" transform="rotate(20 285 131)"/>
  </g>

  <!-- Text indicating hold -->
  <text x="200" y="310" font-family="system-ui" font-size="18" font-weight="bold" fill="#fbbf24" text-anchor="middle">
    HALTEN
    <animate attributeName="opacity" values="0.7;1;0.7" dur="1.5s" repeatCount="indefinite"/>
  </text>

  <!-- Arrows showing static hold -->
  <circle cx="340" cy="180" r="25" stroke="#22d3ee" stroke-width="3" fill="none">
    <animate attributeName="opacity" values="0.5;1;0.5" dur="1.5s" repeatCount="indefinite"/>
  </circle>
</svg>