<svg width="400" height="400" viewBox="0 0 400 400" xmlns="http://www.w3.org/2000/svg">
  <defs>
    <linearGradient id="bg5" x1="0%" y1="0%" x2="100%" y2="100%">
      <stop offset="0%" style="stop-color:#334155;stop-opacity:1" />
      <stop offset="100%" style="stop-color:#1e293b;stop-opacity:1" />
    </linearGradient>
    <linearGradient id="body5" x1="0%" y1="0%" x2="100%" y2="100%">
      <stop offset="0%" style="stop-color:#3b82f6;stop-opacity:1" />
      <stop offset="100%" style="stop-color:#06b6d4;stop-opacity:1" />
    </linearGradient>
  </defs>

  <rect width="400" height="400" fill="url(#bg5)"/>

  <!-- Title -->
  <text x="200" y="40" font-family="system-ui" font-size="24" font-weight="bold" fill="#ffffff" text-anchor="middle">Seitheben</text>

  <!-- Head -->
  <circle cx="200" cy="90" r="22" fill="url(#body5)"/>

  <!-- Face details -->
  <circle cx="193" cy="87" r="3" fill="#1e293b"/>
  <circle cx="207" cy="87" r="3" fill="#1e293b"/>
  <path d="M 193 97 Q 200 102 207 97" stroke="#1e293b" stroke-width="2" fill="none" stroke-linecap="round"/>

  <!-- Body -->
  <rect x="175" y="110" width="50" height="80" rx="25" fill="url(#body5)"/>
  <rect x="185" y="190" width="30" height="80" rx="15" fill="url(#body5)"/>

  <!-- Left arm -->
  <g transform-origin="160 130">
    <rect x="110" y="120" width="50" height="15" rx="7" fill="url(#body5)">
      <animateTransform attributeName="transform" type="rotate" values="0 160 130; -60 160 130; 0 160 130" dur="2s" repeatCount="indefinite"/>
    </rect>
    <circle cx="100" cy="127" r="10" fill="#64748b">
      <animateTransform attributeName="transform" type="rotate" values="0 160 130; -60 160 130; 0 160 130" dur="2s" repeatCount="indefinite"/>
    </circle>
  </g>

  <!-- Right arm -->
  <g transform-origin="240 130">
    <rect x="240" y="120" width="50" height="15" rx="7" fill="url(#body5)">
      <animateTransform attributeName="transform" type="rotate" values="0 240 130; 60 240 130; 0 240 130" dur="2s" repeatCount="indefinite"/>
    </rect>
    <circle cx="300" cy="127" r="10" fill="#64748b">
      <animateTransform attributeName="transform" type="rotate" values="0 240 130; 60 240 130; 0 240 130" dur="2s" repeatCount="indefinite"/>
    </circle>
  </g>

  <!-- Arrows -->
  <path d="M 80 200 L 80 150 L 70 160 M 80 150 L 90 160" stroke="#fbbf24" stroke-width="3" fill="none">
    <animate attributeName="opacity" values="1;0.3;1" dur="2s" repeatCount="indefinite"/>
  </path>
  <path d="M 320 200 L 320 150 L 310 160 M 320 150 L 330 160" stroke="#fbbf24" stroke-width="3" fill="none">
    <animate attributeName="opacity" values="1;0.3;1" dur="2s" repeatCount="indefinite"/>
  </path>
</svg>