<svg width="400" height="400" viewBox="0 0 400 400" xmlns="http://www.w3.org/2000/svg">
  <defs>
    <linearGradient id="bgSitup" x1="0%" y1="0%" x2="100%" y2="100%">
      <stop offset="0%" style="stop-color:#334155;stop-opacity:1" />
      <stop offset="100%" style="stop-color:#1e293b;stop-opacity:1" />
    </linearGradient>
    <linearGradient id="bodySitup" x1="0%" y1="0%" x2="100%" y2="100%">
      <stop offset="0%" style="stop-color:#f59e0b;stop-opacity:1" />
      <stop offset="100%" style="stop-color:#d97706;stop-opacity:1" />
    </linearGradient>
  </defs>

  <rect width="400" height="400" fill="url(#bgSitup)"/>

  <!-- Title -->
  <text x="200" y="40" font-family="system-ui" font-size="24" font-weight="bold" fill="#ffffff" text-anchor="middle">Sit-Ups</text>

  <!-- Mat -->
  <rect x="50" y="310" width="300" height="10" rx="5" fill="#475569"/>

  <!-- Hips (connection point, fixed on mat) -->
  <ellipse cx="200" cy="290" rx="30" ry="20" fill="url(#bodySitup)" stroke="#b45309" stroke-width="2"/>

  <!-- Legs (bent, connected to hips) -->
  <rect x="220" y="260" width="18" height="50" rx="9" fill="url(#bodySitup)" stroke="#b45309" stroke-width="2" transform="rotate(40 229 285)"/>
  <rect x="245" y="260" width="18" height="50" rx="9" fill="url(#bodySitup)" stroke="#b45309" stroke-width="2" transform="rotate(40 254 285)"/>

  <!-- Lower legs -->
  <rect x="280" y="270" width="16" height="45" rx="8" fill="url(#bodySitup)" stroke="#b45309" stroke-width="2" transform="rotate(-20 288 292)"/>
  <rect x="305" y="270" width="16" height="45" rx="8" fill="url(#bodySitup)" stroke="#b45309" stroke-width="2" transform="rotate(-20 313 292)"/>

  <!-- Feet -->
  <ellipse cx="295" cy="308" rx="12" ry="7" fill="#c2410c" stroke="#7c2d12" stroke-width="2"/>
  <ellipse cx="320" cy="308" rx="12" ry="7" fill="#c2410c" stroke="#7c2d12" stroke-width="2"/>

  <!-- Upper body with sit-up animation -->
  <g>
    <animateTransform
      attributeName="transform"
      type="rotate"
      values="-30 200 290; 40 200 290; -30 200 290"
      dur="2.5s"
      repeatCount="indefinite"/>

    <!-- Torso (connected to hips) -->
    <ellipse cx="160" cy="260" rx="35" ry="45" fill="url(#bodySitup)" stroke="#b45309" stroke-width="2"/>

    <!-- Arms behind head (drawn first so they appear behind) -->
    <path d="M 155 240 Q 120 220 115 185" stroke="url(#bodySitup)" stroke-width="12" fill="none" stroke-linecap="round"/>
    <path d="M 155 240 Q 170 220 165 185" stroke="url(#bodySitup)" stroke-width="12" fill="none" stroke-linecap="round"/>

    <!-- Hands behind head -->
    <circle cx="115" cy="180" r="8" fill="url(#bodySitup)" stroke="#b45309" stroke-width="2"/>
    <circle cx="165" cy="180" r="8" fill="url(#bodySitup)" stroke="#b45309" stroke-width="2"/>

    <!-- Head (drawn after arms so face is in front) -->
    <circle cx="140" cy="200" r="28" fill="url(#bodySitup)" stroke="#b45309" stroke-width="2"/>

    <!-- Face details - facing forward/up -->
    <circle cx="130" cy="195" r="3" fill="#1e293b"/>
    <circle cx="150" cy="195" r="3" fill="#1e293b"/>
    <!-- Happy smile -->
    <path d="M 128 210 Q 140 218 152 210" stroke="#1e293b" stroke-width="2.5" fill="none" stroke-linecap="round"/>
  </g>

  <!-- Sparkle effects -->
  <circle cx="80" cy="160" r="3" fill="#fbbf24" opacity="0">
    <animate attributeName="opacity" values="0;1;0" dur="2.5s" repeatCount="indefinite"/>
    <animate attributeName="r" values="2;4;2" dur="2.5s" repeatCount="indefinite"/>
  </circle>
  <circle cx="340" cy="200" r="3" fill="#22d3ee" opacity="0">
    <animate attributeName="opacity" values="0;1;0" dur="2.5s" begin="0.5s" repeatCount="indefinite"/>
    <animate attributeName="r" values="2;4;2" dur="2.5s" repeatCount="indefinite"/>
  </circle>

  <!-- Info text -->
  <text x="200" y="365" font-family="system-ui" font-size="14" fill="#94a3b8" text-anchor="middle">Kontrollierte Ausführung, Nacken entspannt</text>
</svg>
